<?xml version="1.0" encoding="UTF-8" standalone="no"?>
<svg
   xmlns:dc="http://purl.org/dc/elements/1.1/"
   xmlns:cc="http://creativecommons.org/ns#"
   xmlns:rdf="http://www.w3.org/1999/02/22-rdf-syntax-ns#"
   xmlns:svg="http://www.w3.org/2000/svg"
   xmlns="http://www.w3.org/2000/svg"
   xmlns:sodipodi="http://sodipodi.sourceforge.net/DTD/sodipodi-0.dtd"
   xmlns:inkscape="http://www.inkscape.org/namespaces/inkscape"
   fill-opacity="0"
   color-rendering="auto"
   color-interpolation="auto"
   stroke="rgb(0,0,0)"
   text-rendering="auto"
   stroke-linecap="square"
   width="816"
   stroke-miterlimit="10"
   stroke-opacity="0"
   shape-rendering="auto"
   fill="rgb(0,0,0)"
   stroke-dasharray="none"
   font-weight="normal"
   stroke-width="1"
   height="346"
   font-family="'Dialog'"
   font-style="normal"
   stroke-linejoin="miter"
   font-size="12"
   stroke-dashoffset="0"
   image-rendering="auto"
   id="svg2"
   version="1.1"
   inkscape:version="0.48.3.1 r9886"
   sodipodi:docname="reversi.svg"
   inkscape:export-filename="/home/ashatta/programming/study/semester_3/hw_01/reversi.png"
   inkscape:export-xdpi="90"
   inkscape:export-ydpi="90">
  <metadata
     id="metadata338">
    <rdf:RDF>
      <cc:Work
         rdf:about="">
        <dc:format>image/svg+xml</dc:format>
        <dc:type
           rdf:resource="http://purl.org/dc/dcmitype/StillImage" />
        <dc:title></dc:title>
      </cc:Work>
    </rdf:RDF>
  </metadata>
  <sodipodi:namedview
     pagecolor="#ffffff"
     bordercolor="#666666"
     borderopacity="1"
     objecttolerance="10"
     gridtolerance="10"
     guidetolerance="10"
     inkscape:pageopacity="0"
     inkscape:pageshadow="2"
     inkscape:window-width="1366"
     inkscape:window-height="719"
     id="namedview336"
     showgrid="false"
     inkscape:snap-center="false"
     inkscape:zoom="1.2513017"
     inkscape:cx="390.90963"
     inkscape:cy="197.26186"
     inkscape:window-x="0"
     inkscape:window-y="24"
     inkscape:window-maximized="1"
     inkscape:current-layer="g5" />
  <!--Generated by the Batik Graphics2D SVG Generator-->
  <defs
     id="genericDefs" />
  <g
     id="g5">
    <defs
       id="defs1">
      <clipPath
         clipPathUnits="userSpaceOnUse"
         id="clipPath1">
        <path
           d="m -7,-7 208,0 0,108 -208,0 0,-108 z"
           id="path9"
           inkscape:connector-curvature="0" />
      </clipPath>
      <clipPath
         clipPathUnits="userSpaceOnUse"
         id="clipPath2">
        <path
           d="m 0,0 0,87 190,0 0,-87 z"
           id="path12"
           inkscape:connector-curvature="0" />
      </clipPath>
      <clipPath
         clipPathUnits="userSpaceOnUse"
         id="clipPath3">
        <path
           d="M 0,0 190,0 190,14 0,14 0,0 z"
           id="path15"
           inkscape:connector-curvature="0" />
      </clipPath>
      <clipPath
         clipPathUnits="userSpaceOnUse"
         id="clipPath4">
        <path
           d="m -7,-7 168,0 0,58 -168,0 0,-58 z"
           id="path18"
           inkscape:connector-curvature="0" />
      </clipPath>
      <clipPath
         clipPathUnits="userSpaceOnUse"
         id="clipPath5">
        <path
           d="m 0,0 0,40 135,0 0,-40 z"
           id="path21"
           inkscape:connector-curvature="0" />
      </clipPath>
      <clipPath
         clipPathUnits="userSpaceOnUse"
         id="clipPath6">
        <path
           d="m -7,-7 208,0 0,128 -208,0 0,-128 z"
           id="path24"
           inkscape:connector-curvature="0" />
      </clipPath>
      <clipPath
         clipPathUnits="userSpaceOnUse"
         id="clipPath7">
        <path
           d="m 0,0 0,107 190,0 0,-107 z"
           id="path27"
           inkscape:connector-curvature="0" />
      </clipPath>
      <clipPath
         clipPathUnits="userSpaceOnUse"
         id="clipPath8">
        <path
           d="m -7,-7 158,0 0,88 -158,0 0,-88 z"
           id="path30"
           inkscape:connector-curvature="0" />
      </clipPath>
      <clipPath
         clipPathUnits="userSpaceOnUse"
         id="clipPath9">
        <path
           d="m 0,0 0,67 140,0 0,-67 z"
           id="path33"
           inkscape:connector-curvature="0" />
      </clipPath>
      <clipPath
         clipPathUnits="userSpaceOnUse"
         id="clipPath10">
        <path
           d="M 0,0 140,0 140,14 0,14 0,0 z"
           id="path36"
           inkscape:connector-curvature="0" />
      </clipPath>
      <clipPath
         clipPathUnits="userSpaceOnUse"
         id="clipPath11">
        <path
           d="m -7,-7 108,0 0,88 -108,0 0,-88 z"
           id="path39"
           inkscape:connector-curvature="0" />
      </clipPath>
      <clipPath
         clipPathUnits="userSpaceOnUse"
         id="clipPath12">
        <path
           d="M 0,0 0,67 90,67 90,0 z"
           id="path42"
           inkscape:connector-curvature="0" />
      </clipPath>
      <clipPath
         clipPathUnits="userSpaceOnUse"
         id="clipPath13">
        <path
           d="M 0,0 90,0 90,14 0,14 0,0 z"
           id="path45"
           inkscape:connector-curvature="0" />
      </clipPath>
      <clipPath
         clipPathUnits="userSpaceOnUse"
         id="clipPath14">
        <path
           d="m -7,-7 98,0 0,58 -98,0 0,-58 z"
           id="path48"
           inkscape:connector-curvature="0" />
      </clipPath>
      <clipPath
         clipPathUnits="userSpaceOnUse"
         id="clipPath15">
        <path
           d="M 0,0 0,37 80,37 80,0 z"
           id="path51"
           inkscape:connector-curvature="0" />
      </clipPath>
      <clipPath
         clipPathUnits="userSpaceOnUse"
         id="clipPath16">
        <path
           d="M 0,0 80,0 80,14 0,14 0,0 z"
           id="path54"
           inkscape:connector-curvature="0" />
      </clipPath>
      <clipPath
         clipPathUnits="userSpaceOnUse"
         id="clipPath17">
        <path
           d="m -7,-7 138,0 0,88 -138,0 0,-88 z"
           id="path57"
           inkscape:connector-curvature="0" />
      </clipPath>
      <clipPath
         clipPathUnits="userSpaceOnUse"
         id="clipPath18">
        <path
           d="m 0,0 0,67 120,0 0,-67 z"
           id="path60"
           inkscape:connector-curvature="0" />
      </clipPath>
      <clipPath
         clipPathUnits="userSpaceOnUse"
         id="clipPath19">
        <path
           d="M 0,0 120,0 120,14 0,14 0,0 z"
           id="path63"
           inkscape:connector-curvature="0" />
      </clipPath>
      <clipPath
         clipPathUnits="userSpaceOnUse"
         id="clipPath20">
        <path
           d="m -7,-7 138,0 0,68 -138,0 0,-68 z"
           id="path66"
           inkscape:connector-curvature="0" />
      </clipPath>
      <clipPath
         clipPathUnits="userSpaceOnUse"
         id="clipPath21">
        <path
           d="m 0,0 0,47 120,0 0,-47 z"
           id="path69"
           inkscape:connector-curvature="0" />
      </clipPath>
      <clipPath
         clipPathUnits="userSpaceOnUse"
         id="clipPath22">
        <path
           d="m -7,-7 44,0 0,32 -44,0 0,-32 z"
           id="path72"
           inkscape:connector-curvature="0" />
      </clipPath>
      <clipPath
         clipPathUnits="userSpaceOnUse"
         id="clipPath23">
        <path
           d="M 0,0 26,0 26,14 0,14 0,0 z"
           id="path75"
           inkscape:connector-curvature="0" />
      </clipPath>
      <clipPath
         clipPathUnits="userSpaceOnUse"
         id="clipPath24">
        <path
           d="M 0,0 145,0 145,115 0,115 0,0 z"
           id="path78"
           inkscape:connector-curvature="0" />
      </clipPath>
      <clipPath
         clipPathUnits="userSpaceOnUse"
         id="clipPath25">
        <path
           d="M 0,0 205,0 205,115 0,115 0,0 z"
           id="path81"
           inkscape:connector-curvature="0" />
      </clipPath>
      <clipPath
         clipPathUnits="userSpaceOnUse"
         id="clipPath26">
        <path
           d="M 0,0 235,0 235,115 0,115 0,0 z"
           id="path84"
           inkscape:connector-curvature="0" />
      </clipPath>
      <clipPath
         clipPathUnits="userSpaceOnUse"
         id="clipPath27">
        <path
           d="M 0,0 115,0 115,165 0,165 0,0 z"
           id="path87"
           inkscape:connector-curvature="0" />
      </clipPath>
      <clipPath
         clipPathUnits="userSpaceOnUse"
         id="clipPath28">
        <path
           d="M 0,0 205,0 205,185 0,185 0,0 z"
           id="path90"
           inkscape:connector-curvature="0" />
      </clipPath>
      <clipPath
         clipPathUnits="userSpaceOnUse"
         id="clipPath29">
        <path
           d="M 0,0 195,0 195,185 0,185 0,0 z"
           id="path93"
           inkscape:connector-curvature="0" />
      </clipPath>
      <clipPath
         clipPathUnits="userSpaceOnUse"
         id="clipPath30">
        <path
           d="M 0,0 275,0 275,115 0,115 0,0 z"
           id="path96"
           inkscape:connector-curvature="0" />
      </clipPath>
    </defs>
    <g
       text-rendering="geometricPrecision"
       id="g98"
       style="fill:#ffffff;fill-opacity:1;stroke:#ffffff;stroke-opacity:1">
      <rect
         x="0"
         width="816"
         height="346"
         y="0"
         id="rect100"
         style="stroke:none" />
    </g>
    <g
       font-size="11"
       transform="translate(182,162)"
       text-rendering="geometricPrecision"
       font-weight="bold"
       id="g102"
       style="font-size:11px;font-weight:bold;fill:#c0ffc0;fill-opacity:1;stroke:#c0ffc0;stroke-opacity:1;font-family:sans-serif">
      <rect
         x="0"
         width="190"
         height="90"
         y="0"
         clip-path="url(#clipPath1)"
         id="rect104"
         style="stroke:none" />
    </g>
    <g
       font-size="11"
       transform="translate(182,162)"
       text-rendering="geometricPrecision"
       font-weight="bold"
       stroke-miterlimit="0"
       id="g106"
       style="font-size:11px;font-weight:bold;fill:#000000;fill-opacity:1;stroke:#000000;stroke-linecap:butt;stroke-linejoin:round;stroke-miterlimit:0;stroke-opacity:1;font-family:sans-serif">
      <rect
         x="0"
         width="190"
         height="90"
         y="0"
         clip-path="url(#clipPath1)"
         id="rect108"
         style="fill:none" />
      <line
         y2="14"
         x1="0"
         clip-path="url(#clipPath1)"
         x2="190"
         y1="14"
         id="line110"
         style="fill:none" />
    </g>
    <g
       font-size="11"
       transform="translate(182,176)"
       text-rendering="geometricPrecision"
       id="g112"
       style="font-size:11px;fill:#000000;fill-opacity:1;stroke:#000000;stroke-opacity:1;font-family:sans-serif">
      <text
         x="2"
         xml:space="preserve"
         y="13"
         clip-path="url(#clipPath2)"
         id="text114"
         style="stroke:none">-strategy : Strategy*</text>
      <text
         x="2"
         xml:space="preserve"
         y="27"
         clip-path="url(#clipPath2)"
         id="text116"
         style="stroke:none">-color</text>
      <line
         clip-path="url(#clipPath2)"
         x1="0"
         x2="190"
         y1="32"
         y2="32"
         stroke-miterlimit="0"
         id="line118"
         style="fill:none;stroke-linecap:butt;stroke-linejoin:bevel;stroke-miterlimit:0" />
      <text
         x="2"
         xml:space="preserve"
         y="45"
         clip-path="url(#clipPath2)"
         id="text120"
         style="stroke:none">+Player(color, strategy)</text>
      <text
         x="2"
         xml:space="preserve"
         y="59"
         clip-path="url(#clipPath2)"
         id="text122"
         style="stroke:none">+nextStep() : Cell</text>
    </g>
    <g
       font-size="11"
       transform="translate(182,162)"
       text-rendering="geometricPrecision"
       font-weight="bold"
       id="g124"
       style="font-size:11px;font-weight:bold;fill:#000000;fill-opacity:1;stroke:#000000;stroke-opacity:1;font-family:sans-serif">
      <text
         x="77"
         xml:space="preserve"
         y="11"
         clip-path="url(#clipPath3)"
         id="text126"
         style="stroke:none">Player</text>
    </g>
    <g
       font-size="11"
       transform="translate(2,212)"
       text-rendering="geometricPrecision"
       id="g128"
       style="font-size:11px;fill:#c0ffc0;fill-opacity:1;stroke:#c0ffc0;stroke-opacity:1;font-family:sans-serif">
      <polygon
         points="134,0 149,15 134,15 134,0 149,15 149,39 0,39 0,0 "
         clip-path="url(#clipPath4)"
         id="polygon130"
         style="stroke:none" />
    </g>
    <g
       font-size="11"
       transform="translate(2,212)"
       text-rendering="geometricPrecision"
       stroke-miterlimit="0"
       id="g132"
       style="font-size:11px;fill:#000000;fill-opacity:1;stroke:#000000;stroke-linecap:butt;stroke-linejoin:round;stroke-miterlimit:0;stroke-opacity:1;font-family:sans-serif">
      <polygon
         points="134,0 149,15 134,15 134,0 149,15 149,39 0,39 0,0 "
         clip-path="url(#clipPath4)"
         id="polygon134"
         style="fill:none" />
    </g>
    <g
       transform="translate(2,212)"
       text-rendering="geometricPrecision"
       id="g136"
       style="fill:#000000;fill-opacity:1;stroke:#000000;stroke-opacity:1;font-family:sans-serif">
      <path
         d="m 5.8438,14.8102 q -0.7969,0 -1.9219,-0.3594 l 0,-1.0625 q 1.125,0.5625 1.9687,0.5625 0.5,0 0.8282,-0.2734 0.3281,-0.2734 0.3281,-0.6797 0,-0.5781 -0.9219,-0.9687 L 5.4531,11.7321 q -1.5,-0.6094 -1.5,-1.7813 0,-0.8281 0.5938,-1.3047 0.5937,-0.4765 1.6093,-0.4765 0.5313,0 1.3282,0.1406 l 0.2344,0.0469 0,0.9687 Q 6.75,9.029 6.1875,9.029 q -1.125,0 -1.125,0.8125 0,0.5156 0.8437,0.875 l 0.5626,0.2343 q 0.9374,0.4063 1.3359,0.8438 0.3984,0.4375 0.3984,1.1094 0,0.8281 -0.664,1.3671 -0.6641,0.5391 -1.6953,0.5391 z m 6.2187,0 q -0.875,0 -1.3672,-0.5 -0.4922,-0.5 -0.4922,-1.4062 l 0,-3.7344 -0.7969,0 0,-0.8594 0.7969,0 0,-1.1562 1.1563,-0.1094 0,1.2656 1.6562,0 0,0.8594 -1.6562,0 0,3.5312 q 0,1.25 1.0781,1.25 0.2187,0 0.5469,-0.0781 l 0,0.7969 q -0.5313,0.1406 -0.9219,0.1406 z m 2.0937,-0.1406 0,-6.3594 1.1563,0 0,1.1875 Q 16,8.1696 17.2969,8.1696 q 0.1875,0 0.375,0.0312 l 0,1.0782 Q 17.375,9.1696 17.1406,9.1696 q -1.0937,0 -1.8281,1.2969 l 0,4.2031 -1.1563,0 z m 8.2813,-0.8125 q -1.0313,0.9531 -2,0.9531 -0.7969,0 -1.3125,-0.4922 -0.5156,-0.4922 -0.5156,-1.2422 0,-1.0468 0.875,-1.6093 0.875,-0.5625 2.5,-0.5625 l 0.2812,0 0,-0.7657 q 0,-1.1093 -1.1406,-1.1093 -0.9062,0 -1.9688,0.5625 l 0,-0.9532 q 1.1719,-0.4687 2.1876,-0.4687 1.0624,0 1.5703,0.4765 0.5078,0.4766 0.5078,1.4922 l 0,2.8907 q 0,0.9843 0.6093,0.9843 0.0782,0 0.2188,-0.0312 l 0.0781,0.6406 q -0.3906,0.1875 -0.8593,0.1875 -0.8126,0 -1.0313,-0.9531 z m -0.1719,-0.625 0,-1.6406 -0.3906,-0.0157 q -0.9375,0 -1.5234,0.3594 -0.586,0.3594 -0.586,0.9531 0,0.4063 0.2891,0.6953 0.2891,0.2891 0.7109,0.2891 0.7188,0 1.5,-0.6406 z m 5.7969,1.5781 q -0.875,0 -1.3672,-0.5 -0.4922,-0.5 -0.4922,-1.4062 l 0,-3.7344 -0.7969,0 0,-0.8594 0.7969,0 0,-1.1562 1.1563,-0.1094 0,1.2656 1.6562,0 0,0.8594 -1.6562,0 0,3.5312 q 0,1.25 1.0781,1.25 0.2187,0 0.5469,-0.0781 l 0,0.7969 q -0.5313,0.1406 -0.9219,0.1406 z m 6.75,-0.3437 q -1.1563,0.3437 -1.9844,0.3437 -1.4062,0 -2.289,-0.9297 -0.8829,-0.9297 -0.8829,-2.4297 0,-1.4375 0.7813,-2.3672 0.7813,-0.9296 2,-0.9296 1.1563,0 1.7813,0.8203 0.625,0.8203 0.625,2.3359 l 0,0.3594 -4.0157,0 q 0.25,2.2656 2.2188,2.2656 0.7187,0 1.7656,-0.3906 l 0,0.9219 z m -3.9375,-3.6719 2.8125,0 q 0,-1.7656 -1.3281,-1.7656 -1.3282,0 -1.4844,1.7656 z m 6.2969,5.9844 0.1406,-1 q 1,0.4843 1.9687,0.4843 1.9532,0 1.9532,-2.0781 l 0,-1 q -0.6406,1.3438 -2.0938,1.3438 -1.1406,0 -1.8125,-0.836 -0.6719,-0.8359 -0.6719,-2.2422 0,-1.4531 0.7657,-2.3672 0.7656,-0.914 1.9843,-0.914 1.0626,0 1.8282,0.8594 l 0,-0.7188 1.1718,0 0,4.625 q 0,1.5 -0.1562,2.2188 -0.1562,0.7187 -0.5938,1.1718 -0.75,0.7969 -2.3437,0.7969 -1.1094,0 -2.1406,-0.3437 z m 4.0625,-4.3125 0,-2.6407 q -0.75,-0.7968 -1.6563,-0.7968 -0.7969,0 -1.25,0.6406 -0.4531,0.6406 -0.4531,1.75 0,2.0937 1.4844,2.0937 1,0 1.875,-1.0468 z m 3.2968,4.5156 1.0313,-2.3125 -2.4687,-6.3594 1.25,0 1.8281,4.7813 1.9375,-4.7813 1.0937,0 -3.4843,8.6719 -1.1876,0 z m 5.3438,-5.3438 0,-0.875 5.2031,0 0,0.875 -5.2031,0 z m 7.8906,3.0313 6.9375,-3.4688 -6.9375,-3.4687 0,0.9687 5,2.5 -5,2.5 0,0.9688 z"
         clip-path="url(#clipPath5)"
         id="path138"
         inkscape:connector-curvature="0"
         style="stroke:none" />
      <path
         d="m 67.1562,14.6696 1.1094,-6.3594 1.1563,0 -0.2031,1.1875 q 1.1406,-1.3281 2.4687,-1.3281 0.8281,0 1.2266,0.5234 0.3984,0.5235 0.2421,1.3985 l -0.7968,4.5781 -1.1563,0 0.7344,-4.2031 Q 72.0625,9.7633 71.9062,9.4586 71.75,9.154 71.2812,9.154 q -1.0624,0 -2.25,1.3906 l -0.7187,4.125 -1.1563,0 z m 11.6876,-0.2031 q -1.2032,0.3437 -2.0313,0.3437 -1.4063,0 -2.1328,-0.9297 -0.7266,-0.9297 -0.4609,-2.4297 0.25,-1.4375 1.1953,-2.3672 0.9453,-0.9296 2.164,-0.9296 1.1563,0 1.6407,0.8203 0.4843,0.8203 0.2187,2.3359 l -0.0625,0.3594 -4.0156,0 q -0.1563,2.2656 1.8125,2.2656 0.7187,0 1.8437,-0.3906 l -0.1718,0.9219 z m -3.2813,-3.6719 2.8125,0 Q 78.6719,9.029 77.3438,9.029 q -1.3282,0 -1.7813,1.7656 z m 4.9531,3.875 3,-3.2813 -1.8125,-3.0781 1.3594,0 1.4375,2.4375 2.1094,-2.4375 1.125,0 -2.7656,3.2188 1.8437,3.1406 -1.375,0 -1.4687,-2.5156 -2.2969,2.5156 -1.1563,0 z m 9.5313,0.1406 q -0.875,0 -1.2813,-0.5 -0.4062,-0.5 -0.25,-1.4062 l 0.6563,-3.7344 -0.7969,0 0.1406,-0.8594 0.7969,0 0.2031,-1.1562 1.1875,-0.1094 -0.2343,1.2656 1.6562,0 -0.1406,0.8594 -1.6563,0 -0.625,3.5312 q -0.2187,1.25 0.8594,1.25 0.2187,0 0.5625,-0.0781 l -0.1406,0.7969 q -0.5469,0.1406 -0.9375,0.1406 z m 3.7343,0.0781 q -0.8593,0 -2.1562,-0.3906 l 0.2188,-1.2187 q 1.3281,0.6875 2.2812,0.6875 0.7188,0 1.2344,-0.3829 0.5156,-0.3828 0.625,-1.0078 0.0781,-0.5 -0.1485,-0.8593 -0.2265,-0.3594 -0.9297,-0.7969 L 94.375,10.5758 q -1,-0.6406 -1.3516,-1.1953 -0.3515,-0.5547 -0.2265,-1.3047 0.1719,-1 1.0156,-1.6484 0.8437,-0.6484 1.9687,-0.6484 1,0 2.0469,0.3281 l -0.2031,1.125 q -1.2812,-0.5313 -1.9531,-0.5313 -0.6407,0 -1.1094,0.336 Q 94.0938,7.3727 94,7.8883 q -0.0781,0.4375 0.1719,0.7735 0.25,0.3359 0.9687,0.8047 l 0.5625,0.3437 q 1,0.6406 1.3516,1.2109 0.3515,0.5704 0.2109,1.3672 -0.2031,1.125 -1.1484,1.8125 -0.9453,0.6875 -2.336,0.6875 z m 6.2657,-0.0781 q -0.875,0 -1.2813,-0.5 -0.4062,-0.5 -0.25,-1.4062 l 0.6563,-3.7344 -0.7969,0 0.1406,-0.8594 0.7969,0 0.2031,-1.1562 1.1875,-0.1094 -0.2343,1.2656 1.6562,0 -0.1406,0.8594 -1.6563,0 -0.625,3.5312 q -0.2187,1.25 0.8594,1.25 0.2187,0 0.5625,-0.0781 l -0.1406,0.7969 q -0.5469,0.1406 -0.9375,0.1406 z m 6.7969,-0.3437 q -1.2032,0.3437 -2.0313,0.3437 -1.4063,0 -2.1328,-0.9297 -0.7266,-0.9297 -0.4609,-2.4297 0.25,-1.4375 1.1953,-2.3672 0.9453,-0.9296 2.164,-0.9296 1.1563,0 1.6407,0.8203 0.4843,0.8203 0.2187,2.3359 l -0.0625,0.3594 -4.0156,0 q -0.1563,2.2656 1.8125,2.2656 0.7187,0 1.8437,-0.3906 l -0.1718,0.9219 z m -3.2813,-3.6719 2.8125,0 q 0.2969,-1.7656 -1.0312,-1.7656 -1.3282,0 -1.7813,1.7656 z m 5.1875,6.1875 1.5156,-8.6719 1.1563,0 -0.2031,1.1875 q 0.9374,-1.3281 2.3593,-1.3281 1.1407,0 1.6563,0.8359 0.5156,0.836 0.2656,2.2891 -0.2812,1.5781 -1.1953,2.5469 -0.9141,0.9687 -2.1328,0.9687 -1.125,0 -1.7344,-0.8594 l -0.5313,3.0313 -1.1562,0 z m 1.8281,-3.8281 q 0.75,0.7968 1.5625,0.7968 1.6563,0 2.1094,-2.5468 0.3906,-2.2344 -1.0781,-2.2344 -0.9688,0 -2.0781,1.0469 l -0.5157,2.9375 z"
         clip-path="url(#clipPath5)"
         id="path140"
         inkscape:connector-curvature="0"
         style="stroke:none" />
      <path
         d="m 119.4688,15.6071 0,0.7969 q -1.2657,-0.8594 -2.0079,-2.3438 -0.7421,-1.4844 -0.7421,-3.1562 0,-1.6719 0.7421,-3.1485 0.7422,-1.4765 2.0079,-2.3359 l 0,0.7969 q -0.8594,0.9375 -1.2266,2.0156 -0.3672,1.0781 -0.3672,2.6719 0,1.6093 0.3672,2.6875 0.3672,1.0781 1.2266,2.0156 z m 1.0624,0 0,0.7969 q 1.2657,-0.8594 2.0079,-2.3438 0.7421,-1.4844 0.7421,-3.1562 0,-1.6719 -0.7421,-3.1485 -0.7422,-1.4765 -2.0079,-2.3359 l 0,0.7969 q 0.8594,0.9375 1.2266,2.0156 0.3672,1.0781 0.3672,2.6719 0,1.6093 -0.3672,2.6875 -0.3672,1.0781 -1.2266,2.0156 z"
         clip-path="url(#clipPath5)"
         id="path142"
         inkscape:connector-curvature="0"
         style="stroke:none" />
    </g>
    <g
       font-size="11"
       transform="translate(182,2)"
       text-rendering="geometricPrecision"
       font-weight="bold"
       id="g144"
       style="font-size:11px;font-weight:bold;fill:#c0ffc0;fill-opacity:1;stroke:#c0ffc0;stroke-opacity:1;font-family:sans-serif">
      <rect
         x="0"
         width="190"
         height="110"
         y="0"
         clip-path="url(#clipPath6)"
         id="rect146"
         style="stroke:none" />
    </g>
    <g
       font-size="11"
       transform="translate(182,2)"
       text-rendering="geometricPrecision"
       font-weight="bold"
       stroke-miterlimit="0"
       id="g148"
       style="font-size:11px;font-weight:bold;fill:#000000;fill-opacity:1;stroke:#000000;stroke-linecap:butt;stroke-linejoin:round;stroke-miterlimit:0;stroke-opacity:1;font-family:sans-serif">
      <rect
         x="0"
         width="190"
         height="110"
         y="0"
         clip-path="url(#clipPath6)"
         id="rect150"
         style="fill:none" />
      <line
         y2="14"
         x1="0"
         clip-path="url(#clipPath6)"
         x2="190"
         y1="14"
         id="line152"
         style="fill:none" />
    </g>
    <g
       font-size="11"
       transform="translate(182,16)"
       text-rendering="geometricPrecision"
       id="g154"
       style="font-size:11px;fill:#000000;fill-opacity:1;stroke:#000000;stroke-opacity:1;font-family:sans-serif">
      <text
         x="2"
         xml:space="preserve"
         y="13"
         clip-path="url(#clipPath7)"
         id="text156"
         style="stroke:none">-field : Field*</text>
      <text
         x="2"
         xml:space="preserve"
         y="27"
         clip-path="url(#clipPath7)"
         id="text158"
         style="stroke:none">-lastPlayer : Player*</text>
      <line
         clip-path="url(#clipPath7)"
         x1="0"
         x2="190"
         y1="32"
         y2="32"
         stroke-miterlimit="0"
         id="line160"
         style="fill:none;stroke-linecap:butt;stroke-linejoin:bevel;stroke-miterlimit:0" />
      <text
         x="2"
         xml:space="preserve"
         y="45"
         clip-path="url(#clipPath7)"
         id="text162"
         style="stroke:none">+Game(player1, player2)</text>
      <text
         x="2"
         xml:space="preserve"
         y="59"
         clip-path="url(#clipPath7)"
         id="text164"
         style="stroke:none">+start()</text>
      <text
         x="2"
         xml:space="preserve"
         y="73"
         clip-path="url(#clipPath7)"
         id="text166"
         style="stroke:none">-nextPlayer() : Player *</text>
    </g>
    <g
       font-size="11"
       transform="translate(182,2)"
       text-rendering="geometricPrecision"
       font-weight="bold"
       id="g168"
       style="font-size:11px;font-weight:bold;fill:#000000;fill-opacity:1;stroke:#000000;stroke-opacity:1;font-family:sans-serif">
      <text
         x="79"
         xml:space="preserve"
         y="11"
         clip-path="url(#clipPath3)"
         id="text170"
         style="stroke:none">Game</text>
    </g>
    <g
       font-size="11"
       transform="translate(492,2)"
       text-rendering="geometricPrecision"
       font-weight="bold"
       id="g172"
       style="font-size:11px;font-weight:bold;fill:#c0ffc0;fill-opacity:1;stroke:#c0ffc0;stroke-opacity:1;font-family:sans-serif">
      <rect
         x="0"
         width="140"
         height="70"
         y="0"
         clip-path="url(#clipPath8)"
         id="rect174"
         style="stroke:none" />
    </g>
    <g
       font-size="11"
       transform="translate(492,2)"
       text-rendering="geometricPrecision"
       font-weight="bold"
       stroke-miterlimit="0"
       id="g176"
       style="font-size:11px;font-weight:bold;fill:#000000;fill-opacity:1;stroke:#000000;stroke-linecap:butt;stroke-linejoin:round;stroke-miterlimit:0;stroke-opacity:1;font-family:sans-serif">
      <rect
         x="0"
         width="140"
         height="70"
         y="0"
         clip-path="url(#clipPath8)"
         id="rect178"
         style="fill:none" />
      <line
         y2="14"
         x1="0"
         clip-path="url(#clipPath8)"
         x2="140"
         y1="14"
         id="line180"
         style="fill:none" />
    </g>
    <g
       font-size="11"
       transform="translate(492,16)"
       text-rendering="geometricPrecision"
       id="g182"
       style="font-size:11px;fill:#000000;fill-opacity:1;stroke:#000000;stroke-opacity:1;font-family:sans-serif">
      <text
         x="2"
         xml:space="preserve"
         y="13"
         clip-path="url(#clipPath9)"
         id="text184"
         style="stroke:none">-field : Chip[8][8]</text>
      <line
         clip-path="url(#clipPath9)"
         x1="0"
         x2="140"
         y1="18"
         y2="18"
         stroke-miterlimit="0"
         id="line186"
         style="fill:none;stroke-linecap:butt;stroke-linejoin:bevel;stroke-miterlimit:0" />
      <text
         x="2"
         xml:space="preserve"
         y="31"
         clip-path="url(#clipPath9)"
         id="text188"
         style="stroke:none">+setChip(cell, color)</text>
      <text
         x="2"
         xml:space="preserve"
         y="45"
         clip-path="url(#clipPath9)"
         id="text190"
         style="stroke:none">+getColorAt(cell)</text>
    </g>
    <g
       font-size="11"
       transform="translate(492,2)"
       text-rendering="geometricPrecision"
       font-weight="bold"
       id="g192"
       style="font-size:11px;font-weight:bold;fill:#000000;fill-opacity:1;stroke:#000000;stroke-opacity:1;font-family:sans-serif">
      <text
         x="55"
         xml:space="preserve"
         y="11"
         clip-path="url(#clipPath10)"
         id="text194"
         style="stroke:none">Field</text>
    </g>
    <g
       font-size="11"
       transform="translate(722,22)"
       text-rendering="geometricPrecision"
       font-weight="bold"
       id="g196"
       style="font-size:11px;font-weight:bold;fill:#c0ffc0;fill-opacity:1;stroke:#c0ffc0;stroke-opacity:1;font-family:sans-serif">
      <rect
         x="0"
         width="90"
         height="70"
         y="0"
         clip-path="url(#clipPath11)"
         id="rect198"
         style="stroke:none" />
    </g>
    <g
       font-size="11"
       transform="translate(722,22)"
       text-rendering="geometricPrecision"
       font-weight="bold"
       stroke-miterlimit="0"
       id="g200"
       style="font-size:11px;font-weight:bold;fill:#000000;fill-opacity:1;stroke:#000000;stroke-linecap:butt;stroke-linejoin:round;stroke-miterlimit:0;stroke-opacity:1;font-family:sans-serif">
      <rect
         x="0"
         width="90"
         height="70"
         y="0"
         clip-path="url(#clipPath11)"
         id="rect202"
         style="fill:none" />
      <line
         y2="14"
         x1="0"
         clip-path="url(#clipPath11)"
         x2="90"
         y1="14"
         id="line204"
         style="fill:none" />
    </g>
    <g
       font-size="11"
       transform="translate(722,36)"
       text-rendering="geometricPrecision"
       id="g206"
       style="font-size:11px;fill:#000000;fill-opacity:1;stroke:#000000;stroke-opacity:1;font-family:sans-serif">
      <text
         x="2"
         xml:space="preserve"
         y="13"
         clip-path="url(#clipPath12)"
         id="text208"
         style="stroke:none">-color</text>
      <line
         clip-path="url(#clipPath12)"
         x1="0"
         x2="90"
         y1="18"
         y2="18"
         stroke-miterlimit="0"
         id="line210"
         style="fill:none;stroke-linecap:butt;stroke-linejoin:bevel;stroke-miterlimit:0" />
      <text
         x="2"
         xml:space="preserve"
         y="31"
         clip-path="url(#clipPath12)"
         id="text212"
         style="stroke:none">+flip()</text>
      <text
         x="2"
         xml:space="preserve"
         y="45"
         clip-path="url(#clipPath12)"
         id="text214"
         style="stroke:none">+getColor()</text>
    </g>
    <g
       font-size="11"
       transform="translate(722,22)"
       text-rendering="geometricPrecision"
       font-weight="bold"
       id="g216"
       style="font-size:11px;font-weight:bold;fill:#000000;fill-opacity:1;stroke:#000000;stroke-opacity:1;font-family:sans-serif">
      <text
         x="32"
         xml:space="preserve"
         y="11"
         clip-path="url(#clipPath13)"
         id="text218"
         style="stroke:none">Chip</text>
    </g>
    <g
       font-size="11"
       transform="translate(532,162)"
       text-rendering="geometricPrecision"
       font-weight="bold"
       id="g220"
       style="font-size:11px;font-weight:bold;fill:#c0ffc0;fill-opacity:1;stroke:#c0ffc0;stroke-opacity:1;font-family:sans-serif">
      <rect
         x="0"
         width="80"
         height="40"
         y="0"
         clip-path="url(#clipPath14)"
         id="rect222"
         style="stroke:none" />
    </g>
    <g
       font-size="11"
       transform="translate(532,162)"
       text-rendering="geometricPrecision"
       font-weight="bold"
       stroke-miterlimit="0"
       id="g224"
       style="font-size:11px;font-weight:bold;fill:#000000;fill-opacity:1;stroke:#000000;stroke-linecap:butt;stroke-linejoin:round;stroke-miterlimit:0;stroke-opacity:1;font-family:sans-serif">
      <rect
         x="0"
         width="80"
         height="40"
         y="0"
         clip-path="url(#clipPath14)"
         id="rect226"
         style="fill:none" />
      <line
         y2="14"
         x1="0"
         clip-path="url(#clipPath14)"
         x2="80"
         y1="14"
         id="line228"
         style="fill:none" />
    </g>
    <g
       font-size="11"
       transform="translate(532,176)"
       text-rendering="geometricPrecision"
       font-style="italic"
       id="g230"
       style="font-size:11px;font-style:italic;fill:#000000;fill-opacity:1;stroke:#000000;stroke-opacity:1;font-family:sans-serif">
      <text
         x="2"
         xml:space="preserve"
         y="13"
         clip-path="url(#clipPath15)"
         id="text232"
         style="stroke:none">+nextStep()</text>
    </g>
    <g
       font-size="11"
       transform="translate(532,162)"
       text-rendering="geometricPrecision"
       font-style="italic"
       font-weight="bold"
       id="g234"
       style="font-size:11px;font-style:italic;font-weight:bold;fill:#000000;fill-opacity:1;stroke:#000000;stroke-opacity:1;font-family:sans-serif">
      <text
         x="16"
         xml:space="preserve"
         y="11"
         clip-path="url(#clipPath16)"
         id="text236"
         style="stroke:none">Strategy</text>
    </g>
    <g
       font-size="11"
       transform="translate(602,272)"
       text-rendering="geometricPrecision"
       font-weight="bold"
       id="g238"
       style="font-size:11px;font-weight:bold;fill:#c0ffc0;fill-opacity:1;stroke:#c0ffc0;stroke-opacity:1;font-family:sans-serif">
      <rect
         x="0"
         width="120"
         height="70"
         y="0"
         clip-path="url(#clipPath17)"
         id="rect240"
         style="stroke:none" />
    </g>
    <g
       font-size="11"
       transform="translate(602,272)"
       text-rendering="geometricPrecision"
       font-weight="bold"
       stroke-miterlimit="0"
       id="g242"
       style="font-size:11px;font-weight:bold;fill:#000000;fill-opacity:1;stroke:#000000;stroke-linecap:butt;stroke-linejoin:round;stroke-miterlimit:0;stroke-opacity:1;font-family:sans-serif">
      <rect
         x="0"
         width="120"
         height="70"
         y="0"
         clip-path="url(#clipPath17)"
         id="rect244"
         style="fill:none" />
      <line
         y2="14"
         x1="0"
         clip-path="url(#clipPath17)"
         x2="120"
         y1="14"
         id="line246"
         style="fill:none" />
    </g>
    <g
       font-size="11"
       transform="translate(602,286)"
       text-rendering="geometricPrecision"
       id="g248"
       style="font-size:11px;fill:#000000;fill-opacity:1;stroke:#000000;stroke-opacity:1;font-family:sans-serif">
      <text
         x="2"
         xml:space="preserve"
         y="13"
         clip-path="url(#clipPath18)"
         id="text250"
         style="stroke:none">-field : Field*</text>
      <text
         x="2"
         xml:space="preserve"
         y="27"
         clip-path="url(#clipPath18)"
         id="text252"
         style="stroke:none">-color</text>
      <line
         clip-path="url(#clipPath18)"
         x1="0"
         x2="120"
         y1="32"
         y2="32"
         stroke-miterlimit="0"
         id="line254"
         style="fill:none;stroke-linecap:butt;stroke-linejoin:bevel;stroke-miterlimit:0" />
      <text
         x="2"
         xml:space="preserve"
         y="45"
         clip-path="url(#clipPath18)"
         id="text256"
         style="stroke:none">+nextStep()</text>
    </g>
    <g
       font-size="11"
       transform="translate(602,272)"
       text-rendering="geometricPrecision"
       font-weight="bold"
       id="g258"
       style="font-size:11px;font-weight:bold;fill:#000000;fill-opacity:1;stroke:#000000;stroke-opacity:1;font-family:sans-serif">
      <text
         x="8"
         xml:space="preserve"
         y="11"
         clip-path="url(#clipPath19)"
         id="text260"
         style="stroke:none">ComputerStrategy</text>
    </g>
    <g
       font-size="11"
       transform="translate(432,272)"
       text-rendering="geometricPrecision"
       font-weight="bold"
       id="g262"
       style="font-size:11px;font-weight:bold;fill:#c0ffc0;fill-opacity:1;stroke:#c0ffc0;stroke-opacity:1;font-family:sans-serif">
      <rect
         x="0"
         width="120"
         height="50"
         y="0"
         clip-path="url(#clipPath20)"
         id="rect264"
         style="stroke:none" />
    </g>
    <g
       font-size="11"
       transform="translate(432,272)"
       text-rendering="geometricPrecision"
       font-weight="bold"
       stroke-miterlimit="0"
       id="g266"
       style="font-size:11px;font-weight:bold;fill:#000000;fill-opacity:1;stroke:#000000;stroke-linecap:butt;stroke-linejoin:round;stroke-miterlimit:0;stroke-opacity:1;font-family:sans-serif">
      <rect
         x="0"
         width="120"
         height="50"
         y="0"
         clip-path="url(#clipPath20)"
         id="rect268"
         style="fill:none" />
      <line
         y2="14"
         x1="0"
         clip-path="url(#clipPath20)"
         x2="120"
         y1="14"
         id="line270"
         style="fill:none" />
    </g>
    <g
       font-size="11"
       transform="translate(432,286)"
       text-rendering="geometricPrecision"
       id="g272"
       style="font-size:11px;fill:#000000;fill-opacity:1;stroke:#000000;stroke-opacity:1;font-family:sans-serif">
      <text
         x="2"
         xml:space="preserve"
         y="13"
         clip-path="url(#clipPath21)"
         id="text274"
         style="stroke:none">+nextStep()</text>
    </g>
    <g
       font-size="11"
       transform="translate(432,272)"
       text-rendering="geometricPrecision"
       font-weight="bold"
       id="g276"
       style="font-size:11px;font-weight:bold;fill:#000000;fill-opacity:1;stroke:#000000;stroke-opacity:1;font-family:sans-serif">
      <text
         x="16"
         xml:space="preserve"
         y="11"
         clip-path="url(#clipPath19)"
         id="text278"
         style="stroke:none">HumanStrategy</text>
    </g>
    <g
       font-size="11"
       transform="translate(252,142)"
       text-rendering="geometricPrecision"
       id="g280"
       style="font-size:11px;fill:#000000;fill-opacity:1;stroke:#000000;stroke-opacity:1;font-family:sans-serif">
      <text
         x="9"
         xml:space="preserve"
         y="11"
         clip-path="url(#clipPath23)"
         id="text282"
         style="stroke:none">2</text>
    </g>
    <g
       font-size="11"
       transform="translate(96,176)"
       text-rendering="geometricPrecision"
       id="g284"
       style="font-size:11px;fill:#000000;fill-opacity:1;stroke:#000000;stroke-linecap:butt;stroke-linejoin:round;stroke-opacity:1;stroke-dasharray:4;font-family:sans-serif">
      <line
         y2="56"
         x1="56"
         clip-path="url(#clipPath24)"
         x2="86"
         y1="56"
         id="line286"
         style="fill:none" />
    </g>
    <g
       font-size="11"
       transform="translate(576,-4)"
       text-rendering="geometricPrecision"
       id="g288"
       style="font-size:11px;fill:#000000;fill-opacity:1;stroke:#000000;stroke-linecap:butt;stroke-linejoin:round;stroke-opacity:1;font-family:sans-serif">
      <line
         y2="56"
         x1="80"
         clip-path="url(#clipPath25)"
         x2="146"
         y1="56"
         id="line290"
         style="fill:none" />
      <polygon
         points="68,62 80,56 68,50 56,56 "
         clip-path="url(#clipPath25)"
         id="polygon292"
         style="stroke:none" />
      <polygon
         points="68,62 80,56 68,50 56,56 "
         clip-path="url(#clipPath25)"
         id="polygon294"
         style="fill:none" />
    </g>
    <g
       font-size="11"
       transform="translate(316,-24)"
       text-rendering="geometricPrecision"
       id="g296"
       style="font-size:11px;fill:#000000;fill-opacity:1;stroke:#000000;stroke-linecap:butt;stroke-linejoin:round;stroke-opacity:1;font-family:sans-serif">
      <line
         y2="56"
         x1="56"
         clip-path="url(#clipPath26)"
         x2="176"
         y1="56"
         id="line298"
         style="fill:none" />
    </g>
    <g
       font-size="11"
       transform="translate(216,56)"
       text-rendering="geometricPrecision"
       id="g300"
       style="font-size:11px;fill:#000000;fill-opacity:1;stroke:#000000;stroke-linecap:butt;stroke-linejoin:round;stroke-opacity:1;font-family:sans-serif">
      <line
         y2="106"
         x1="56"
         clip-path="url(#clipPath27)"
         x2="56"
         y1="56"
         id="line302"
         style="fill:none" />
    </g>
    <g
       font-size="11"
       transform="translate(516,146)"
       text-rendering="geometricPrecision"
       id="g304"
       style="font-size:11px;fill:#000000;fill-opacity:1;stroke:#000000;stroke-linecap:butt;stroke-linejoin:round;stroke-opacity:1;font-family:sans-serif">
      <line
         y2="96"
         x1="56"
         clip-path="url(#clipPath28)"
         x2="56"
         y1="56"
         id="line306"
         style="fill:none" />
      <line
         y2="96"
         x1="56"
         clip-path="url(#clipPath28)"
         x2="146"
         y1="96"
         id="line308"
         style="fill:none" />
      <line
         y2="126"
         x1="146"
         clip-path="url(#clipPath28)"
         x2="146"
         y1="96"
         id="line310"
         style="fill:none" />
      <polygon
         clip-path="url(#clipPath28)"
         points="50,68 62,68 56,56 "
         id="polygon312"
         style="fill:#ffffff;stroke:none" />
      <polygon
         points="50,68 62,68 56,56 "
         clip-path="url(#clipPath28)"
         id="polygon314"
         style="fill:none" />
    </g>
    <g
       font-size="11"
       transform="translate(436,146)"
       text-rendering="geometricPrecision"
       id="g316"
       style="font-size:11px;fill:#000000;fill-opacity:1;stroke:#000000;stroke-linecap:butt;stroke-linejoin:round;stroke-opacity:1;font-family:sans-serif">
      <line
         y2="96"
         x1="136"
         clip-path="url(#clipPath29)"
         x2="136"
         y1="56"
         id="line318"
         style="fill:none" />
      <line
         y2="96"
         x1="136"
         clip-path="url(#clipPath29)"
         x2="56"
         y1="96"
         id="line320"
         style="fill:none" />
      <line
         y2="126"
         x1="56"
         clip-path="url(#clipPath29)"
         x2="56"
         y1="96"
         id="line322"
         style="fill:none" />
      <polygon
         clip-path="url(#clipPath29)"
         points="130,68 142,68 136,56 "
         id="polygon324"
         style="fill:#ffffff;stroke:none" />
      <polygon
         points="130,68 142,68 136,56 "
         clip-path="url(#clipPath29)"
         id="polygon326"
         style="fill:none" />
    </g>
    <g
       font-size="11"
       transform="translate(316,126)"
       text-rendering="geometricPrecision"
       id="g328"
       style="font-size:11px;fill:#000000;fill-opacity:1;stroke:#000000;stroke-linecap:butt;stroke-linejoin:round;stroke-opacity:1;font-family:sans-serif">
      <line
         y2="56"
         x1="216"
         clip-path="url(#clipPath30)"
         x2="56"
         y1="56"
         id="line330"
         style="fill:none" />
    </g>
  </g>
</svg>
